<svg width="1200" height="1200" viewBox="0 0 1200 1200" fill="none" xmlns="http://www.w3.org/2000/svg">
<path d="M387.966 431.836C387.966 456.521 383.27 477.523 373.878 494.839C364.559 512.157 351.84 525.383 335.716 534.52C319.668 543.584 301.623 548.116 281.58 548.116C261.39 548.116 243.271 543.547 227.222 534.41C211.174 525.273 198.49 512.046 189.172 494.728C179.853 477.412 175.194 456.447 175.194 431.836C175.194 407.15 179.853 386.149 189.172 368.832C198.49 351.515 211.174 338.324 227.222 329.261C243.271 320.123 261.39 315.555 281.58 315.555C301.623 315.555 319.668 320.123 335.716 329.261C351.84 338.324 364.559 351.515 373.878 368.832C383.27 386.149 387.966 407.15 387.966 431.836ZM339.266 431.836C339.266 415.845 336.863 402.36 332.055 391.38C327.322 380.401 320.629 372.074 311.976 366.4C303.323 360.726 293.191 357.889 281.58 357.889C269.969 357.889 259.837 360.726 251.184 366.4C242.531 372.074 235.802 380.401 230.994 391.38C226.261 402.36 223.894 415.845 223.894 431.836C223.894 447.826 226.261 461.311 230.994 472.291C235.802 483.271 242.531 491.597 251.184 497.271C259.837 502.946 269.969 505.782 281.58 505.782C293.191 505.782 303.323 502.946 311.976 497.271C320.629 491.597 327.322 483.271 332.055 472.291C336.863 461.311 339.266 447.826 339.266 431.836ZM423.548 545.021V318.649H513.183C530.414 318.649 545.095 321.929 557.224 328.487C569.354 334.972 578.599 343.998 584.957 355.568C591.392 367.063 594.609 380.327 594.609 395.36C594.609 410.392 591.355 423.656 584.846 435.151C578.34 446.647 568.91 455.599 556.559 462.011C544.283 468.422 529.418 471.627 511.963 471.627H454.832V433.272H504.198C513.442 433.272 521.059 431.688 527.05 428.52C533.115 425.277 537.626 420.819 540.583 415.145C543.617 409.397 545.132 402.802 545.132 395.36C545.132 387.843 543.617 381.285 540.583 375.685C537.626 370.011 533.115 365.626 527.05 362.531C520.985 359.363 513.294 357.778 503.976 357.778H471.584V545.021H423.548ZM625.809 545.021V318.649H778.899V358.11H673.845V412.05H771.023V451.51H673.845V505.561H779.343V545.021H625.809ZM1007.12 318.649V545.021H965.629L866.788 402.544H865.123V545.021H817.089V318.649H859.243L957.309 461.016H959.307V318.649H1007.12Z" fill="white"/>
<path d="M191 881V569H292.735C311.705 569 327.717 572.35 340.772 579.054C353.828 585.758 363.719 595.152 370.452 607.238C377.284 619.324 380.701 633.39 380.701 649.437C380.701 662.03 378.662 673.202 374.582 682.953C370.503 692.703 364.791 700.778 357.447 707.176C350.206 713.473 341.69 717.839 331.899 720.277V722.105C342.71 722.918 352.756 726.675 362.036 733.379C371.319 739.981 378.762 748.968 384.372 760.343C390.084 771.719 392.94 784.972 392.94 800.105C392.94 816.05 389.472 830.118 382.538 842.304C375.703 854.39 365.454 863.886 351.787 870.793C338.12 877.597 321.19 881 300.996 881H191ZM210.123 863.328H300.996C324.556 863.328 342.659 857.436 355.306 845.656C368.055 833.875 374.429 818.691 374.429 800.105C374.429 787.004 371.319 775.272 365.098 764.913C358.977 754.554 350.462 746.38 339.548 740.386C328.635 734.293 315.989 731.245 301.608 731.245H210.123V863.328ZM210.123 713.878H299.313C312.674 713.878 323.995 710.984 333.276 705.195C342.659 699.405 349.798 691.636 354.693 681.886C359.691 672.135 362.19 661.32 362.19 649.437C362.19 630.14 356.173 614.854 344.138 603.581C332.103 592.307 314.969 586.67 292.735 586.67H210.123V713.878ZM496.25 881V569H515.372V863.328H668.357V881H496.25ZM1006 569V881H987.337L787.539 603.581H785.703V881H766.58V569H785.396L985.194 846.723H987.031V569H1006Z" fill="white" stroke="white" stroke-width="4"/>
</svg>
