<svg width="1200" height="1200" viewBox="0 0 1200 1200" fill="none" xmlns="http://www.w3.org/2000/svg">
<g clip-path="url(#clip0_668_78391)">
<rect width="1200" height="1200" fill="white"/>
<path d="M281.58 316.055C301.543 316.055 319.502 320.604 335.469 329.695L335.472 329.696C351.507 338.71 364.161 351.83 373.438 369.068L373.438 369.07C382.782 386.298 387.466 407.213 387.466 431.836C387.466 456.458 382.782 477.374 373.438 494.601L373.438 494.602C364.161 511.842 351.506 524.997 335.47 534.085C319.503 543.102 301.544 547.615 281.58 547.615C261.469 547.615 243.436 543.066 227.47 533.976C211.508 524.888 198.889 511.732 189.612 494.491C180.342 477.264 175.694 456.385 175.694 431.836C175.694 407.212 180.342 386.296 189.612 369.068C198.889 351.829 211.508 338.71 227.469 329.696L227.47 329.695C243.436 320.605 261.469 316.055 281.58 316.055ZM858.979 319.149L956.897 461.299L957.046 461.516H959.807V319.149H1006.62V544.521H965.89L867.198 402.259L867.05 402.044H864.623V544.521H817.589V319.149H858.979ZM778.398 319.149V357.609H673.345V412.55H770.523V451.01H673.345V506.061H778.843V544.521H626.309V319.149H778.398ZM513.184 319.149C530.352 319.149 544.946 322.417 556.986 328.927L556.988 328.928C569.036 335.369 578.209 344.328 584.52 355.809L584.521 355.812C590.909 367.222 594.108 380.4 594.108 395.359C594.108 410.318 590.872 423.495 584.411 434.905C577.955 446.312 568.599 455.198 556.328 461.567H556.327C544.139 467.933 529.358 471.127 511.963 471.127H472.084V433.772H504.198C513.496 433.772 521.2 432.18 527.284 428.962L527.286 428.961C533.432 425.675 538.018 421.147 541.025 415.378C544.102 409.548 545.632 402.871 545.632 395.359C545.632 387.775 544.102 381.132 541.022 375.446C538.108 369.858 533.711 365.503 527.85 362.384L527.277 362.086C521.121 358.871 513.345 357.278 503.977 357.278H471.084V432.772H454.332V472.127H471.084V544.521H424.048V319.149H513.184ZM281.58 357.389C269.884 357.389 259.654 360.248 250.91 365.981C242.164 371.717 235.376 380.126 230.536 391.18L230.535 391.183C225.768 402.242 223.395 415.799 223.395 431.836C223.395 447.872 225.768 461.429 230.535 472.488L230.536 472.491C235.376 483.546 242.164 491.954 250.91 497.689C259.654 503.424 269.884 506.282 281.58 506.282C293.276 506.282 303.507 503.424 312.251 497.689C320.997 491.954 327.748 483.546 332.514 472.491C337.356 461.431 339.767 447.873 339.767 431.836C339.767 416.299 337.504 403.089 332.96 392.224L332.514 391.18C327.748 380.126 320.997 371.717 312.251 365.981C303.507 360.248 293.276 357.389 281.58 357.389ZM471.084 433.772V471.127H455.332V433.772H471.084Z" fill="black" stroke="black"/>
<path d="M191 881V569H292.735C311.705 569 327.717 572.35 340.772 579.054C353.828 585.758 363.719 595.152 370.452 607.238C377.284 619.324 380.701 633.39 380.701 649.437C380.701 662.03 378.662 673.202 374.582 682.953C370.503 692.703 364.791 700.778 357.447 707.176C350.206 713.473 341.69 717.839 331.899 720.277V722.105C342.71 722.918 352.756 726.675 362.036 733.379C371.319 739.981 378.762 748.968 384.372 760.343C390.084 771.719 392.94 784.972 392.94 800.105C392.94 816.05 389.472 830.118 382.538 842.304C375.703 854.39 365.454 863.886 351.787 870.793C338.12 877.597 321.19 881 300.996 881H191ZM210.123 863.328H300.996C324.556 863.328 342.659 857.436 355.306 845.656C368.055 833.875 374.429 818.691 374.429 800.105C374.429 787.004 371.319 775.272 365.098 764.913C358.977 754.554 350.462 746.38 339.548 740.386C328.635 734.293 315.989 731.245 301.608 731.245H210.123V863.328ZM210.123 713.878H299.313C312.674 713.878 323.995 710.984 333.276 705.195C342.659 699.405 349.798 691.636 354.693 681.886C359.691 672.135 362.19 661.32 362.19 649.437C362.19 630.14 356.173 614.854 344.138 603.581C332.103 592.307 314.969 586.67 292.735 586.67H210.123V713.878ZM496.25 881V569H515.372V863.328H668.357V881H496.25ZM1006 569V881H987.337L787.539 603.581H785.703V881H766.58V569H785.396L985.194 846.723H987.031V569H1006Z" fill="black" stroke="black" stroke-width="5"/>
</g>
<defs>
<clipPath id="clip0_668_78391">
<rect width="1200" height="1200" fill="white"/>
</clipPath>
</defs>
</svg>
